<svg width="28" height="28" viewBox="0 0 28 28" fill="none" xmlns="http://www.w3.org/2000/svg">
<g clip-path="url(#clip0_836_2787)">
<path d="M13.9998 2.33399C14.8979 2.33307 15.79 2.48049 16.64 2.77032C15.8344 3.60315 15.327 4.67909 15.1968 5.83044C15.0666 6.9818 15.3209 8.14388 15.9202 9.13558C16.5194 10.1273 17.4299 10.8929 18.5097 11.313C19.5896 11.7332 20.7781 11.7843 21.89 11.4585L22.1665 11.3675V14.6155C22.1666 14.7508 22.1903 14.885 22.2365 15.0122L22.2902 15.137L24.2922 19.1422C24.3849 19.3277 24.4314 19.5329 24.4275 19.7402C24.4236 19.9476 24.3695 20.1509 24.2698 20.3328C24.1702 20.5147 24.0279 20.6697 23.8552 20.7846C23.6825 20.8995 23.4846 20.9708 23.2783 20.9925L23.1442 20.9995H4.85549C4.64801 20.9996 4.44362 20.9493 4.25981 20.8531C4.07601 20.7568 3.91828 20.6175 3.80014 20.4469C3.682 20.2763 3.60698 20.0797 3.58149 19.8738C3.55601 19.6679 3.58083 19.4589 3.65382 19.2647L3.70749 19.1422L5.71066 15.137C5.77087 15.0159 5.80955 14.8852 5.82499 14.7508L5.83316 14.6167V10.5007C5.83316 8.33472 6.69357 6.2575 8.22512 4.72595C9.75666 3.1944 11.8339 2.33399 13.9998 2.33399ZM20.4165 3.50066C21.19 3.50066 21.9319 3.80795 22.4789 4.35493C23.0259 4.90191 23.3332 5.64377 23.3332 6.41732C23.3332 7.19087 23.0259 7.93274 22.4789 8.47972C21.9319 9.0267 21.19 9.33399 20.4165 9.33399C19.6429 9.33399 18.9011 9.0267 18.3541 8.47972C17.8071 7.93274 17.4998 7.19087 17.4998 6.41732C17.4998 5.64377 17.8071 4.90191 18.3541 4.35493C18.9011 3.80795 19.6429 3.50066 20.4165 3.50066ZM13.9998 24.5007C13.2758 24.5009 12.5695 24.2766 11.9782 23.8587C11.3869 23.4408 10.9397 22.8499 10.6982 22.1673H17.3015C17.06 22.8499 16.6128 23.4408 16.0215 23.8587C15.4302 24.2766 14.7239 24.5009 13.9998 24.5007Z" fill="white"/>
</g>
<defs>
<clipPath id="clip0_836_2787">
<rect width="28" height="28" fill="white"/>
</clipPath>
</defs>
</svg>
